<?xml version="1.0" encoding="UTF-8" standalone="no"?>
<!DOCTYPE svg PUBLIC "-//W3C//DTD SVG 1.1//EN" "http://www.w3.org/Graphics/SVG/1.1/DTD/svg11.dtd">
<svg width="100%" height="100%" viewBox="0 0 2017 2017" version="1.1" xmlns="http://www.w3.org/2000/svg" xmlns:xlink="http://www.w3.org/1999/xlink" xml:space="preserve" xmlns:serif="http://www.serif.com/" style="fill-rule:evenodd;clip-rule:evenodd;stroke-linecap:round;stroke-linejoin:round;stroke-miterlimit:1.5;">
    <g transform="matrix(1,0,0,1,-253.367,-807.439)">
        <g transform="matrix(0.854154,0,0,1.14611,198.401,579.979)">
            <rect x="69.229" y="202.099" width="2350.99" height="1752.11" style="fill:white;stroke:white;stroke-width:8.24px;"/>
        </g>
        <g transform="matrix(1,0,0,1,45.354,20.235)">
            <g transform="matrix(1,0,0,1,-45.354,-20.235)">
                <path d="M1213,2198.72C1074.04,2180.14 939.823,2117.48 833.096,2010.75C729.109,1906.76 666.956,1776.68 646.645,1641.55L1213,1641.55L1213,2198.72Z" style="fill:rgb(241,231,58);stroke:rgb(89,0,13);stroke-width:8.33px;"/>
            </g>
            <g transform="matrix(1,0,0,1,-45.354,-20.235)">
                <path d="M1213,2295.29L1213,2530.22L990.811,2308.03L799.031,2499.81L350.753,2045.67L528.897,1867.53L302.924,1641.55L549.884,1641.55C570.812,1801.37 642.63,1955.81 765.332,2078.51C890.756,2203.94 1049.34,2276.2 1213,2295.29Z" style="fill:rgb(104,226,189);stroke:rgb(89,0,13);stroke-width:8.33px;"/>
            </g>
            <g transform="matrix(1,0,0,1,-45.354,-20.235)">
                <path d="M1985.32,1640.36L2220.25,1640.36L1998.06,1862.55L2189.84,2054.33L1735.7,2502.61L1557.56,2324.46L1331.58,2550.44L1331.58,2303.48C1491.4,2282.55 1645.84,2210.73 1768.55,2088.03C1893.97,1962.6 1966.23,1804.02 1985.32,1640.36Z" style="fill:rgb(101,140,253);stroke:rgb(89,0,13);stroke-width:8.33px;"/>
            </g>
            <g transform="matrix(1,0,0,1,-45.354,-20.235)">
                <path d="M1888.75,1640.36C1870.17,1779.32 1807.51,1913.54 1700.78,2020.26C1596.79,2124.25 1466.71,2186.4 1331.58,2206.72L1331.58,1640.36L1888.75,1640.36Z" style="fill:rgb(254,101,154);stroke:rgb(89,0,13);stroke-width:8.33px;"/>
            </g>
            <g transform="matrix(1.10474,0,0,1.10474,-125.699,612.112)">
                <path d="M1467,810.725L1540.58,810.725L1540.58,564.978L1648.85,564.978L1648.85,810.725L1768.8,810.725C1775.05,810.725 1780.12,818.193 1780.12,827.392C1780.12,836.59 1775.05,844.058 1768.8,844.058L668.168,844.058C661.921,844.058 656.85,836.59 656.85,827.392C656.85,818.193 661.921,810.725 668.168,810.725L796.933,810.725C787.259,805.953 778.421,800.431 770.422,794.161C755.068,782.125 743.204,767.749 734.83,751.032C726.455,734.316 722.268,715.593 722.268,694.865C722.268,673.468 726.256,654.16 734.232,636.943C742.208,619.725 753.573,605.098 768.328,593.062C783.083,581.026 800.929,571.748 821.865,565.229C842.801,558.71 866.43,555.45 892.75,555.45C918.671,555.45 942,558.71 962.737,565.229C983.474,571.748 1001.02,581.193 1015.38,593.563C1029.73,605.934 1040.7,621.062 1048.28,638.948C1055.85,656.835 1059.64,676.978 1059.64,699.378L1059.64,708.907L831.735,708.907C831.735,748.023 853.668,767.581 897.535,767.581C921.063,767.581 938.809,759.558 950.773,743.51L1055.45,743.51C1044.64,773.619 1025.52,796.025 998.11,810.725L1182.56,810.725C1171.96,805.081 1162.29,798.389 1153.56,790.65C1139.6,778.28 1128.73,763.737 1120.95,747.02C1113.18,730.304 1109.29,712.25 1109.29,692.859C1109.29,674.471 1112.98,657.002 1120.36,640.453C1127.74,623.904 1138.2,609.444 1151.76,597.074C1165.32,584.704 1181.57,574.925 1200.51,567.736C1219.46,560.548 1240.29,556.954 1263.02,556.954C1301.31,556.954 1333.01,568.154 1358.13,590.554L1358.13,406.005L1467,406.005L1467,810.725ZM1358.13,810.725L1337.66,810.725C1345.08,805.923 1351.9,800.234 1358.13,793.659L1358.13,810.725ZM1221.75,692.859C1221.75,701.217 1223.54,708.99 1227.13,716.178C1230.72,723.366 1235.61,729.635 1241.79,734.984C1247.97,740.334 1255.35,744.513 1263.92,747.522C1272.49,750.531 1281.77,752.035 1291.74,752.035C1301.31,752.035 1310.38,750.531 1318.95,747.522C1327.53,744.513 1334.9,740.334 1341.09,734.984C1347.27,729.635 1352.25,723.45 1356.04,716.429C1359.83,709.408 1361.72,701.886 1361.72,693.862C1361.72,685.838 1359.83,678.232 1356.04,671.044C1352.25,663.856 1347.27,657.587 1341.09,652.238C1334.9,646.889 1327.53,642.71 1318.95,639.701C1310.38,636.692 1301.31,635.187 1291.74,635.187C1282.16,635.187 1273.09,636.692 1264.52,639.701C1255.94,642.71 1248.57,646.889 1242.39,652.238C1236.2,657.587 1231.22,663.689 1227.43,670.543C1223.64,677.396 1221.75,684.835 1221.75,692.859ZM958.549,656.25C954.96,643.546 947.583,633.348 936.417,625.659C925.251,617.969 911.692,614.125 895.74,614.125C878.991,614.125 865.333,617.802 854.765,625.157C844.197,632.513 837.518,642.877 834.726,656.25L958.549,656.25ZM1533.4,466.184C1533.4,459.163 1535,452.56 1538.19,446.375C1541.38,440.19 1545.76,434.757 1551.35,430.077C1556.93,425.396 1563.41,421.718 1570.79,419.044C1578.16,416.369 1586.04,415.032 1594.41,415.032C1602.79,415.032 1610.67,416.369 1618.04,419.044C1625.42,421.718 1631.9,425.396 1637.48,430.077C1643.07,434.757 1647.45,440.19 1650.64,446.375C1653.83,452.56 1655.43,459.163 1655.43,466.184C1655.43,473.205 1653.83,479.808 1650.64,485.993C1647.45,492.178 1643.07,497.611 1637.48,502.292C1631.9,506.972 1625.42,510.65 1618.04,513.325C1610.67,515.999 1602.79,517.336 1594.41,517.336C1586.04,517.336 1578.16,515.999 1570.79,513.325C1563.41,510.65 1556.93,506.972 1551.35,502.292C1545.76,497.611 1541.38,492.178 1538.19,485.993C1535,479.808 1533.4,473.205 1533.4,466.184Z" style="fill:rgb(89,0,13);fill-opacity:0.44;stroke:rgb(89,0,13);stroke-width:7.54px;stroke-linecap:butt;stroke-miterlimit:2;"/>
            </g>
        </g>
    </g>
</svg>
